C:\Users\israe\Dropbox\PhDWork\ExperimentalData\subject9\055\P9S055W02_filtered35.mot
nRows=6
nColumns=28

name C:\Users\israe\Dropbox\PhDWork\ExperimentalData\subject9\055\P9S055W02_filtered35.mot
datacolumns 28
datarows 6
range 0.8370000000 0.8420000000
endheader
time	ground_force_1_vx	ground_force_1_vy	ground_force_1_vz	ground_force_1_px	ground_force_1_py	ground_force_1_pz	ground_moment_1_mx	ground_moment_1_my	ground_moment_1_mz	ground_force_2_vx	ground_force_2_vy	ground_force_2_vz	ground_force_2_px	ground_force_2_py	ground_force_2_pz	ground_moment_2_mx	ground_moment_2_my	ground_moment_2_mz	ground_force_3_vx	ground_force_3_vy	ground_force_3_vz	ground_force_3_px	ground_force_3_py	ground_force_3_pz	ground_moment_3_mx	ground_moment_3_my	ground_moment_3_mz
        0.8370000000	        0.0000000000	        0.0000000000	       -0.0000000000	        0.1988394961	        0.0000558755	       -0.3004071324	       -0.0000000000	        0.0000000000	       -0.0000000000	       -0.0000017224	        0.0000000000	        0.0000039798	        0.2029003516	       -0.0000795827	        0.4543649445	        0.0000013648	       -0.0000002647	        0.0000002898	      -53.1738173157	      810.0485240224	      -51.4658924997	        0.2076431971	        0.0000770316	        1.3583900146	      110.5131455343	       15.3683546744	       94.0205981082	
        0.8380000000	        0.0000000000	        0.0000000000	       -0.0000000000	        0.1988394961	        0.0000558755	       -0.3004071324	       -0.0000000000	       -0.0000000000	        0.0000000000	       -0.0000034232	        0.0000000000	        0.0000054895	        0.2029003516	       -0.0000795827	        0.4543649445	        0.0000007430	       -0.0000006957	        0.0000001453	      -53.2645365164	      810.8484061112	      -52.0544675756	        0.2076431971	        0.0000770316	        1.3583900146	      110.8009002393	       15.4806486062	       94.1323749695	
        0.8390000000	       -0.0000000000	        0.0000000000	       -0.0000000000	        0.1988394961	        0.0000558755	       -0.3004071324	       -0.0000000000	       -0.0000000000	        0.0000000000	       -0.0000056132	        0.0000024695	        0.0000072069	        0.2029003516	       -0.0000795827	        0.4543649445	       -0.0000002418	       -0.0000012666	       -0.0000000812	      -53.3452697494	      811.7168576946	      -52.6661771817	        0.2076431971	        0.0000770316	        1.3583900146	      111.0882572693	       15.5941702558	       94.2488065628	
        0.8400000000	       -0.0000000000	        0.0000000000	       -0.0000000000	        0.1988394961	        0.0000558755	       -0.3004071324	       -0.0000000000	       -0.0000000000	        0.0000000000	       -0.0000083216	        0.0000087391	        0.0000090718	        0.2029003516	       -0.0000795827	        0.4543649445	       -0.0000016705	       -0.0000019908	       -0.0000004073	      -53.4160806422	      812.6525381937	      -53.3038414545	        0.2076431971	        0.0000770316	        1.3583900146	      111.3749176345	       15.7094016265	       94.3696394999	
        0.8410000000	       -0.0000000000	        0.0000000000	       -0.0000000000	        0.1988394961	        0.0000558755	       -0.3004071324	       -0.0000000000	       -0.0000000000	        0.0000000000	       -0.0000115439	        0.0000171700	        0.0000109820	        0.2029003516	       -0.0000795827	        0.4543649445	       -0.0000036213	       -0.0000028739	       -0.0000008502	      -53.4769089141	      813.6499833938	      -53.9691653733	        0.2076431971	        0.0000770316	        1.3583900146	      111.6610429741	       15.8268431217	       94.4946767475	
        0.8420000000	       -0.0000000000	        0.0000000000	       -0.0000000000	        0.1988394961	        0.0000558755	       -0.3004071324	       -0.0000000000	       -0.0000000000	        0.0000000000	       -0.0000152257	        0.0000280070	        0.0000127823	        0.2029003516	       -0.0000795827	        0.4543649445	       -0.0000061613	       -0.0000039099	       -0.0000014243	      -53.5279954410	      814.7017025528	      -54.6624632674	        0.2076431971	        0.0000770316	        1.3583900146	      111.9473458770	       15.9469304502	       94.6235283797	
